<svg xmlns="http://www.w3.org/2000/svg" width="80" height="58" viewBox="0 0 80 58" text-rendering="geometricPrecision" font-family="sans-serif">
<g transform="translate(0, 0)">
  <g id="Root">
    <g id="Box">
      <g id="Row">
        <path d="M56.64,2.83 L58.13,3.13 L59.62,3.45 L61.09,3.8 L62.54,4.19 L63.95,4.63 L65.36,5.15 L66.8,5.77 L68.16,6.46 L69.43,7.26 L70.59,8.15 L71.62,9.16 L72.55,10.31 L73.38,11.61 L74.08,12.92 L74.69,14.3 L75.24,15.72 L75.75,17.22 L76.19,18.72 L76.57,20.2 L76.91,21.63 L77.19,23.0 L77.46,24.48 L77.66,25.99 L77.78,27.47 L77.81,28.93 L77.76,30.39 L77.64,31.87 L77.43,33.37 L77.14,34.86 L76.84,36.22 L76.5,37.65 L76.11,39.13 L75.66,40.62 L75.15,42.11 L74.58,43.54 L73.95,44.9 L73.25,46.22 L72.42,47.51 L71.49,48.66 L70.45,49.67 L69.29,50.57 L68.03,51.35 L66.67,52.05 L65.23,52.66 L63.8,53.18 L62.4,53.62 L60.96,54.02 L59.48,54.38 L58.0,54.72 L56.52,55.04 L55.2,55.3 L53.79,55.54 L52.29,55.76 L50.72,55.96 L49.1,56.14 L47.65,56.28 L46.18,56.4 L44.68,56.51 L43.17,56.6 L41.64,56.67 L40.11,56.73 L38.58,56.77 L37.05,56.79 L35.53,56.79 L34.04,56.78 L32.55,56.75 L31.11,56.69 L29.48,56.6 L27.9,56.49 L26.4,56.35 L24.96,56.18 L23.6,55.98 L22.15,55.72 L20.65,55.44 L19.16,55.12 L17.7,54.78 L16.27,54.39 L14.88,53.95 L13.39,53.4 L11.97,52.77 L10.64,52.05 L9.4,51.24 L8.28,50.32 L7.27,49.28 L6.37,48.09 L5.56,46.76 L4.89,45.45 L4.28,44.07 L3.74,42.64 L3.24,41.13 L2.8,39.62 L2.43,38.13 L2.1,36.68 L1.83,35.31 L1.58,33.87 L1.39,32.35 L1.29,30.86 L1.28,29.4 L1.35,27.95 L1.51,26.48 L1.75,25.0 L2.07,23.48 L2.4,22.13 L2.77,20.73 L3.2,19.28 L3.68,17.81 L4.23,16.33 L4.82,14.89 L5.46,13.52 L6.17,12.22 L7,10.92 L7.92,9.73 L8.92,8.68 L10.05,7.75 L11.28,6.93 L12.61,6.22 L14.02,5.59 L15.48,5.04 L16.88,4.6 L18.31,4.2 L19.77,3.85 L21.25,3.52 L22.75,3.21 L24.13,2.95 L25.51,2.73 L26.97,2.53 L28.51,2.35 L30.11,2.19 L31.66,2.06 L33.11,1.96 L34.6,1.87 L36.11,1.8 L37.63,1.75 L39.16,1.72 L40.7,1.71 L42.23,1.71 L43.76,1.72 L45.27,1.76 L46.76,1.82 L48.21,1.89 L49.75,1.98 L51.36,2.12 L52.9,2.27 L54.37,2.46 L55.76,2.67 Z" fill="#E8D8B8"/>
        <g id="Empty">
          <text x="21" y="39.86" font-size="31.5" font-family="kaigi_mono_bold.ttf:FontWeight(weight=700):Normal:SettingFloat(ital,0.0),SettingInt(wght,700, monospace" font-weight="700" fill="#2A2010">EN</text>
        </g>
      </g>
      <g id="BoxKt">
        <image href="language-chip.figma-raster/454.png" x="0" y="0" width="80" height="58"/>
      </g>
    </g>
  </g>
</g>
</svg>
