<svg xmlns="http://www.w3.org/2000/svg" width="1050" height="399" viewBox="0 0 1050 399" text-rendering="geometricPrecision" font-family="sans-serif">
<g transform="translate(0, 0)">
  <g id="Root">
    <g id="Column">
        <rect x="0" y="0" width="1050" height="399" fill="#FFFFFF"/>
      <g id="Row">
          <rect x="22" y="22" width="1006" height="103" rx="20" ry="20" fill="#FFFFFF" stroke="#19191C" stroke-opacity="0.14" stroke-width="2.62"/>
        <g id="BoxKt">
          <g transform="translate(42 42) scale(2.62 2.62)">
            <path d="M14.904 16.321 C 13.55 17.373 11.848 18 10 18 C 5.582 18 2 14.418 2 10 C 2 5.582 5.582 2 10 2 C 14.418 2 18 5.582 18 10 C 18 11.849 17.372 13.552 16.319 14.907 L20.705 19.293 C 21.095 19.683 21.095 20.316 20.705 20.707 C 20.314 21.098 19.681 21.098 19.29 20.707 L14.904 16.321 Z M16 10 C 16 13.314 13.314 16 10 16 C 6.686 16 4 13.314 4 10 C 4 6.686 6.686 4 10 4 C 13.314 4 16 6.686 16 10 Z" fill="#19191C" fill-rule="evenodd"/>
          </g>
        </g>
        <g id="Box">
          <g id="CoreTextFieldKt">
            <image href="large-search-bar.figma-raster/474.png" x="116" y="49" width="913" height="49"/>
          </g>
          <g id="Empty">
            <text x="116" y="94.99" font-size="42" font-family="jetbrains_sans_regular.ttf:FontWeight(weight=400):Normal:SettingFloat(ital,0.0),SettingInt(wght,400, sans-serif" fill="#19191C" fill-opacity="0.3">Type to search</text>
          </g>
        </g>
      </g>
      <g id="Row">
          <rect x="22" y="148" width="1006" height="103" rx="20" ry="20" fill="#FFFFFF" stroke="#19191C" stroke-opacity="0.14" stroke-width="2.62"/>
        <g id="BoxKt">
          <g transform="translate(42 168) scale(2.62 2.62)">
            <path d="M14.904 16.321 C 13.55 17.373 11.848 18 10 18 C 5.582 18 2 14.418 2 10 C 2 5.582 5.582 2 10 2 C 14.418 2 18 5.582 18 10 C 18 11.849 17.372 13.552 16.319 14.907 L20.705 19.293 C 21.095 19.683 21.095 20.316 20.705 20.707 C 20.314 21.098 19.681 21.098 19.29 20.707 L14.904 16.321 Z M16 10 C 16 13.314 13.314 16 10 16 C 6.686 16 4 13.314 4 10 C 4 6.686 6.686 4 10 4 C 13.314 4 16 6.686 16 10 Z" fill="#19191C" fill-rule="evenodd"/>
          </g>
        </g>
        <g id="Box">
          <g id="CoreTextFieldKt">
            <image href="large-search-bar.figma-raster/483.png" x="116" y="175" width="913" height="49"/>
          </g>
          <g id="Empty">
            <text x="116" y="220.99" font-size="42" font-family="jetbrains_sans_regular.ttf:FontWeight(weight=400):Normal:SettingFloat(ital,0.0),SettingInt(wght,400, sans-serif" fill="#19191C" fill-opacity="0.3">Type to search</text>
          </g>
        </g>
      </g>
      <g id="Row">
          <rect x="22" y="274" width="1006" height="103" rx="20" ry="20" fill="#FFFFFF" stroke="#19191C" stroke-opacity="0.14" stroke-width="2.62"/>
        <g id="BoxKt">
          <g transform="translate(42 294) scale(2.62 2.62)">
            <path d="M14.904 16.321 C 13.55 17.373 11.848 18 10 18 C 5.582 18 2 14.418 2 10 C 2 5.582 5.582 2 10 2 C 14.418 2 18 5.582 18 10 C 18 11.849 17.372 13.552 16.319 14.907 L20.705 19.293 C 21.095 19.683 21.095 20.316 20.705 20.707 C 20.314 21.098 19.681 21.098 19.29 20.707 L14.904 16.321 Z M16 10 C 16 13.314 13.314 16 10 16 C 6.686 16 4 13.314 4 10 C 4 6.686 6.686 4 10 4 C 13.314 4 16 6.686 16 10 Z" fill="#19191C" fill-rule="evenodd"/>
          </g>
        </g>
        <g id="Box">
          <g id="SimpleLayoutKt">
            <image href="large-search-bar.figma-raster/491.png" x="116" y="301" width="913" height="49"/>
          </g>
          <g id="Empty">
            <text x="116" y="346.99" font-size="42" font-family="jetbrains_sans_regular.ttf:FontWeight(weight=400):Normal:SettingFloat(ital,0.0),SettingInt(wght,400, sans-serif" fill="#19191C" fill-opacity="0.3">Type to search</text>
          </g>
        </g>
      </g>
    </g>
  </g>
</g>
</svg>
