<svg xmlns="http://www.w3.org/2000/svg" viewBox="0 0 454 476" width="454" height="476" role="img" aria-label="auth/composables/SignedInConfirmationDialogTruncationPreview layout wireframe">
  <title>auth/composables/SignedInConfirmationDialogTruncationPreview — layout wireframe (slots + tokens)</title>
  <rect width="454" height="476" fill="#ffffff"/>
  <g>
    <rect x="0" y="0" width="454" height="454" fill="none" fill-opacity="0" stroke="#5B6470" stroke-width="1" stroke-opacity="0.5"/>
  </g>
  <g>
    <rect x="0" y="0" width="454" height="454" fill="none" fill-opacity="0" stroke="#2E7D6B" stroke-width="1" stroke-opacity="0.5"/>
  </g>
  <g>
    <rect x="0" y="0" width="454" height="454" fill="#000000" fill-opacity="1" stroke="#8E6BA8" stroke-width="1.5" stroke-opacity="1"/>
    <text x="3" y="12" font-family="system-ui, sans-serif" font-size="9" fill="#8E6BA8">#FF000000</text>
  </g>
  <g>
    <rect x="0" y="-22" width="454" height="498" fill="none" fill-opacity="0" stroke="#B0813B" stroke-width="1" stroke-opacity="0.5"/>
  </g>
  <g>
    <rect x="20" y="104" width="414" height="247" fill="none" fill-opacity="0" stroke="#3B72A8" stroke-width="1" stroke-opacity="0.5"/>
  </g>
  <g>
    <rect x="20" y="104" width="414" height="215" fill="none" fill-opacity="0" stroke="#A85B6B" stroke-width="1" stroke-opacity="0.5"/>
  </g>
  <g>
    <rect x="20" y="104" width="414" height="215" fill="none" fill-opacity="0" stroke="#4F8A4A" stroke-width="1" stroke-opacity="0.5"/>
  </g>
  <g>
    <rect x="20" y="104" width="414" height="215" fill="none" fill-opacity="0" stroke="#7A7A33" stroke-width="1" stroke-opacity="0.5"/>
  </g>
  <g>
    <rect x="63" y="104" width="328" height="215" fill="none" fill-opacity="0" stroke="#5B6470" stroke-width="1" stroke-opacity="0.5"/>
  </g>
  <g>
    <path d="M227,104 H227 A60,60 0 0 1 287,164 V164 A60,60 0 0 1 227,224 H227 A60,60 0 0 1 167,164 V164 A60,60 0 0 1 227,104 Z" fill="#4ECDE6" fill-opacity="1" stroke="#2E7D6B" stroke-width="1.5" stroke-opacity="1"/>
    <text x="170" y="116" font-family="system-ui, sans-serif" font-size="9" fill="#2E7D6B">#FF4ECDE6</text>
  </g>
  <g>
    <rect x="167" y="136" width="120" height="57" fill="none" fill-opacity="0" stroke="#8E6BA8" stroke-width="1" stroke-opacity="0.5"/>
  </g>
  <g>
    <rect x="63" y="240" width="328" height="38" fill="none" fill-opacity="0" stroke="#2E7D6B" stroke-width="1" stroke-opacity="0.5"/>
  </g>
  <g>
    <rect x="63" y="286" width="328" height="33" fill="none" fill-opacity="0" stroke="#2E7D6B" stroke-width="1" stroke-opacity="0.5"/>
  </g>
</svg>
