<svg xmlns="http://www.w3.org/2000/svg" viewBox="0 0 1050 2100" width="1050" height="2100" role="img" aria-label="empty-content layout wireframe">
  <title>empty-content — layout wireframe (slots + tokens)</title>
  <rect width="1050" height="2100" fill="#ffffff"/>
  <g>
    <rect x="0" y="0" width="1050" height="2100" fill="none" fill-opacity="0" stroke="#5B6470" stroke-width="1" stroke-opacity="0.5"/>
  </g>
  <g>
    <rect x="0" y="0" width="1050" height="2100" fill="none" fill-opacity="0" stroke="#2E7D6B" stroke-width="1" stroke-opacity="0.5"/>
  </g>
  <g>
    <rect x="0" y="0" width="1050" height="2100" fill="#F3F6F9" fill-opacity="1" stroke="#8E6BA8" stroke-width="1.5" stroke-opacity="1"/>
    <text x="3" y="12" font-family="system-ui, sans-serif" font-size="9" fill="#8E6BA8">#FFF3F6F9</text>
  </g>
  <g>
    <rect x="0" y="0" width="1050" height="2100" fill="none" fill-opacity="0" stroke="#B0813B" stroke-width="1" stroke-opacity="0.5"/>
  </g>
  <g>
    <rect x="0" y="0" width="1050" height="2100" fill="none" fill-opacity="0" stroke="#3B72A8" stroke-width="1" stroke-opacity="0.5"/>
  </g>
  <g>
    <rect x="0" y="0" width="1050" height="2100" fill="none" fill-opacity="0" stroke="#A85B6B" stroke-width="1" stroke-opacity="0.5"/>
  </g>
  <g>
    <rect x="0" y="0" width="1050" height="2100" fill="none" fill-opacity="0" stroke="#4F8A4A" stroke-width="1" stroke-opacity="0.5"/>
  </g>
  <g>
    <rect x="0" y="0" width="1050" height="2100" fill="none" fill-opacity="0" stroke="#7A7A33" stroke-width="1" stroke-opacity="0.5"/>
  </g>
  <g>
    <rect x="0" y="0" width="1050" height="2100" fill="none" fill-opacity="0" stroke="#5B6470" stroke-width="1" stroke-opacity="0.5"/>
  </g>
  <g>
    <rect x="42" y="0" width="966" height="2100" fill="none" fill-opacity="0" stroke="#2E7D6B" stroke-width="1" stroke-opacity="0.5"/>
  </g>
  <g>
    <rect x="362" y="641" width="326" height="326" fill="none" fill-opacity="0" stroke="#8E6BA8" stroke-width="1" stroke-opacity="0.5"/>
  </g>
  <g>
    <rect x="84" y="1030" width="882" height="55" fill="none" fill-opacity="0" stroke="#8E6BA8" stroke-width="1" stroke-opacity="0.5"/>
  </g>
  <g>
    <rect x="84" y="1106" width="882" height="48" fill="none" fill-opacity="0" stroke="#8E6BA8" stroke-width="1" stroke-opacity="0.5"/>
  </g>
  <g>
    <path d="M136.5,1197 H913.5 A52.5,52.5 0 0 1 966,1249.5 V1249.5 A52.5,52.5 0 0 1 913.5,1302 H136.5 A52.5,52.5 0 0 1 84,1249.5 V1249.5 A52.5,52.5 0 0 1 136.5,1197 Z" fill="#175DDC" fill-opacity="1" stroke="#8E6BA8" stroke-width="1.5" stroke-opacity="1"/>
    <text x="87" y="1209" font-family="system-ui, sans-serif" font-size="9" fill="#8E6BA8">#FF175DDC</text>
  </g>
  <g>
    <rect x="147" y="1223" width="756" height="53" fill="none" fill-opacity="0" stroke="#B0813B" stroke-width="1" stroke-opacity="0.5"/>
  </g>
  <g>
    <rect x="394" y="1223" width="263" height="53" fill="none" fill-opacity="0" stroke="#3B72A8" stroke-width="1" stroke-opacity="0.5"/>
  </g>
  <g>
    <path d="M136.5,1344 H913.5 A52.5,52.5 0 0 1 966,1396.5 V1396.5 A52.5,52.5 0 0 1 913.5,1449 H136.5 A52.5,52.5 0 0 1 84,1396.5 V1396.5 A52.5,52.5 0 0 1 136.5,1344 Z" fill="none" fill-opacity="0" stroke="#175DDC" stroke-width="1.5" stroke-opacity="1"/>
    <text x="87" y="1356" font-family="system-ui, sans-serif" font-size="9" fill="#175DDC">◻ #FF175DDC</text>
  </g>
  <g>
    <rect x="147" y="1370" width="756" height="53" fill="none" fill-opacity="0" stroke="#B0813B" stroke-width="1" stroke-opacity="0.5"/>
  </g>
  <g>
    <rect x="368" y="1370" width="314" height="53" fill="none" fill-opacity="0" stroke="#3B72A8" stroke-width="1" stroke-opacity="0.5"/>
  </g>
  <g>
    <path d="M525.5,-105 H525.5 A52.5,52.5 0 0 1 578,-52.5 V-52.5 A52.5,52.5 0 0 1 525.5,0 H525.5 A52.5,52.5 0 0 1 473,-52.5 V-52.5 A52.5,52.5 0 0 1 525.5,-105 Z" fill="#FFFFFF" fill-opacity="1" stroke="#2E7D6B" stroke-width="1.5" stroke-opacity="1"/>
    <text x="476" y="-93" font-family="system-ui, sans-serif" font-size="9" fill="#2E7D6B">#FFFFFFFF</text>
  </g>
  <g>
    <rect x="505" y="-73" width="42" height="42" fill="none" fill-opacity="0" stroke="#8E6BA8" stroke-width="1" stroke-opacity="0.5"/>
  </g>
  <g>
    <rect x="505" y="-73" width="42" height="42" fill="none" fill-opacity="0" stroke="#B0813B" stroke-width="1" stroke-opacity="0.5"/>
  </g>
  <g>
    <rect x="505" y="-73" width="42" height="42" fill="none" fill-opacity="0" stroke="#3B72A8" stroke-width="1" stroke-opacity="0.5"/>
  </g>
</svg>
