<svg xmlns="http://www.w3.org/2000/svg" viewBox="0 0 890 627" width="890" height="627" role="img" aria-label="media/ui/PlaylistDownloadScreenPreviewLoadedNoneDownloaded layout wireframe">
  <title>media/ui/PlaylistDownloadScreenPreviewLoadedNoneDownloaded — layout wireframe (slots + tokens)</title>
  <rect width="890" height="627" fill="#ffffff"/>
  <g>
    <rect x="0" y="0" width="454" height="454" fill="none" fill-opacity="0" stroke="#5B6470" stroke-width="1" stroke-opacity="0.5"/>
  </g>
  <g>
    <rect x="0" y="0" width="454" height="454" fill="none" fill-opacity="0" stroke="#2E7D6B" stroke-width="1" stroke-opacity="0.5"/>
  </g>
  <g>
    <rect x="0" y="0" width="454" height="454" fill="none" fill-opacity="0" stroke="#8E6BA8" stroke-width="1" stroke-opacity="0.5"/>
  </g>
  <g>
    <rect x="0" y="0" width="454" height="454" fill="none" fill-opacity="0" stroke="#B0813B" stroke-width="1" stroke-opacity="0.5"/>
  </g>
  <g>
    <rect x="0" y="0" width="454" height="454" fill="none" fill-opacity="0" stroke="#3B72A8" stroke-width="1" stroke-opacity="0.5"/>
  </g>
  <g>
    <rect x="0" y="-22" width="454" height="498" fill="none" fill-opacity="0" stroke="#A85B6B" stroke-width="1" stroke-opacity="0.5"/>
  </g>
  <g>
    <rect x="31" y="78" width="392" height="49" fill="none" fill-opacity="0" stroke="#4F8A4A" stroke-width="1" stroke-opacity="0.5"/>
  </g>
  <g>
    <rect x="63" y="78" width="328" height="34" fill="none" fill-opacity="0" stroke="#7A7A33" stroke-width="1" stroke-opacity="0.5"/>
  </g>
  <g>
    <rect x="86" y="78" width="282" height="34" fill="none" fill-opacity="0" stroke="#5B6470" stroke-width="1" stroke-opacity="0.5"/>
  </g>
  <g>
    <rect x="24" y="135" width="406" height="136" fill="none" fill-opacity="0" stroke="#4F8A4A" stroke-width="1" stroke-opacity="0.5"/>
  </g>
  <g>
    <path d="M92,147 H362 A40,40 0 0 1 402,187 V187 A40,40 0 0 1 362,227 H92 A40,40 0 0 1 52,187 V187 A40,40 0 0 1 92,147 Z" fill="#AECBFA" fill-opacity="1" stroke="#7A7A33" stroke-width="1.5" stroke-opacity="1"/>
    <text x="55" y="159" font-family="system-ui, sans-serif" font-size="9" fill="#7A7A33">#FFAECBFA  pad ·</text>
  </g>
  <g>
    <rect x="52" y="147" width="350" height="80" fill="none" fill-opacity="0" stroke="#5B6470" stroke-width="1" stroke-opacity="0.5"/>
  </g>
  <g>
    <rect x="52" y="163" width="48" height="48" fill="none" fill-opacity="0" stroke="#2E7D6B" stroke-width="1" stroke-opacity="0.5"/>
  </g>
  <g>
    <rect x="52" y="163" width="48" height="48" fill="none" fill-opacity="0" stroke="#8E6BA8" stroke-width="1" stroke-opacity="0.5"/>
  </g>
  <g>
    <path d="M76,163 H76 A24,24 0 0 1 100,187 V187 A24,24 0 0 1 76,211 H76 A24,24 0 0 1 52,187 V187 A24,24 0 0 1 76,163 Z" fill="none" fill-opacity="0" stroke="#B0813B" stroke-width="1.5" stroke-opacity="1"/>
  </g>
  <g>
    <rect x="100" y="181" width="12" height="12" fill="none" fill-opacity="0" stroke="#2E7D6B" stroke-width="1" stroke-opacity="0.5"/>
  </g>
  <g>
    <rect x="112" y="151" width="290" height="73" fill="none" fill-opacity="0" stroke="#2E7D6B" stroke-width="1" stroke-opacity="0.5"/>
  </g>
  <g>
    <rect x="112" y="151" width="290" height="73" fill="none" fill-opacity="0" stroke="#8E6BA8" stroke-width="1" stroke-opacity="0.5"/>
  </g>
  <g>
    <rect x="112" y="151" width="290" height="73" fill="none" fill-opacity="0" stroke="#B0813B" stroke-width="1" stroke-opacity="0.5"/>
  </g>
  <g>
    <rect x="24" y="279" width="406" height="104" fill="none" fill-opacity="0" stroke="#4F8A4A" stroke-width="1" stroke-opacity="0.5"/>
  </g>
  <g>
    <path d="M84,291 H362 A40,40 0 0 1 402,331 V331 A40,40 0 0 1 362,371 H84 A40,40 0 0 1 44,331 V331 A40,40 0 0 1 84,291 Z" fill="#303133" fill-opacity="0.38" stroke="#7A7A33" stroke-width="1.5" stroke-opacity="1"/>
    <text x="47" y="303" font-family="system-ui, sans-serif" font-size="9" fill="#7A7A33">#61303133  pad ·</text>
  </g>
  <g>
    <rect x="44" y="291" width="358" height="80" fill="none" fill-opacity="0" stroke="#5B6470" stroke-width="1" stroke-opacity="0.5"/>
  </g>
  <g>
    <rect x="44" y="299" width="64" height="64" fill="none" fill-opacity="0" stroke="#2E7D6B" stroke-width="1" stroke-opacity="0.5"/>
  </g>
  <g>
    <rect x="44" y="299" width="64" height="64" fill="none" fill-opacity="0" stroke="#8E6BA8" stroke-width="1" stroke-opacity="0.5"/>
  </g>
  <g>
    <path d="M76,299 H76 A32,32 0 0 1 108,331 V331 A32,32 0 0 1 76,363 H76 A32,32 0 0 1 44,331 V331 A32,32 0 0 1 76,299 Z" fill="none" fill-opacity="0" stroke="#B0813B" stroke-width="1.5" stroke-opacity="1"/>
  </g>
  <g>
    <rect x="108" y="325" width="12" height="12" fill="none" fill-opacity="0" stroke="#2E7D6B" stroke-width="1" stroke-opacity="0.5"/>
  </g>
  <g>
    <rect x="120" y="300" width="282" height="63" fill="none" fill-opacity="0" stroke="#2E7D6B" stroke-width="1" stroke-opacity="0.5"/>
  </g>
  <g>
    <rect x="120" y="300" width="282" height="35" fill="none" fill-opacity="0" stroke="#8E6BA8" stroke-width="1" stroke-opacity="0.5"/>
  </g>
  <g>
    <rect x="120" y="300" width="282" height="35" fill="none" fill-opacity="0" stroke="#B0813B" stroke-width="1" stroke-opacity="0.5"/>
  </g>
  <g>
    <rect x="120" y="335" width="128" height="28" fill="none" fill-opacity="0" stroke="#8E6BA8" stroke-width="1" stroke-opacity="0.5"/>
  </g>
  <g>
    <rect x="120" y="335" width="128" height="28" fill="none" fill-opacity="0" stroke="#B0813B" stroke-width="1" stroke-opacity="0.5"/>
  </g>
  <g>
    <rect x="67" y="391" width="320" height="82" fill="none" fill-opacity="0" stroke="#4F8A4A" stroke-width="1" stroke-opacity="0.5"/>
  </g>
  <g>
    <path d="M115,400 H333 A32,32 0 0 1 365,432 V432 A32,32 0 0 1 333,464 H115 A32,32 0 0 1 83,432 V432 A32,32 0 0 1 115,400 Z" fill="#303133" fill-opacity="0.38" stroke="#7A7A33" stroke-width="1.5" stroke-opacity="1"/>
    <text x="86" y="412" font-family="system-ui, sans-serif" font-size="9" fill="#7A7A33">#61303133  pad ·</text>
  </g>
  <g>
    <rect x="83" y="400" width="282" height="64" fill="none" fill-opacity="0" stroke="#5B6470" stroke-width="1" stroke-opacity="0.5"/>
  </g>
  <g>
    <rect x="83" y="407" width="50" height="50" fill="none" fill-opacity="0" stroke="#2E7D6B" stroke-width="1" stroke-opacity="0.5"/>
  </g>
  <g>
    <rect x="83" y="407" width="50" height="50" fill="none" fill-opacity="0" stroke="#8E6BA8" stroke-width="1" stroke-opacity="0.5"/>
  </g>
  <g>
    <path d="M108,407 H108 A25,25 0 0 1 133,432 V432 A25,25 0 0 1 108,457 H108 A25,25 0 0 1 83,432 V432 A25,25 0 0 1 108,407 Z" fill="none" fill-opacity="0" stroke="#B0813B" stroke-width="1.5" stroke-opacity="1"/>
  </g>
  <g>
    <rect x="133" y="427" width="10" height="10" fill="none" fill-opacity="0" stroke="#2E7D6B" stroke-width="1" stroke-opacity="0.5"/>
  </g>
  <g>
    <rect x="143" y="408" width="222" height="49" fill="none" fill-opacity="0" stroke="#2E7D6B" stroke-width="1" stroke-opacity="0.5"/>
  </g>
  <g>
    <rect x="143" y="408" width="222" height="27" fill="none" fill-opacity="0" stroke="#8E6BA8" stroke-width="1" stroke-opacity="0.5"/>
  </g>
  <g>
    <rect x="143" y="408" width="222" height="27" fill="none" fill-opacity="0" stroke="#B0813B" stroke-width="1" stroke-opacity="0.5"/>
  </g>
  <g>
    <rect x="143" y="435" width="116" height="22" fill="none" fill-opacity="0" stroke="#8E6BA8" stroke-width="1" stroke-opacity="0.5"/>
  </g>
  <g>
    <rect x="143" y="435" width="116" height="22" fill="none" fill-opacity="0" stroke="#B0813B" stroke-width="1" stroke-opacity="0.5"/>
  </g>
  <g>
    <rect x="436" y="173" width="454" height="454" fill="none" fill-opacity="0" stroke="#B0813B" stroke-width="1" stroke-opacity="0.5"/>
  </g>
  <g>
    <rect x="0" y="0" width="454" height="454" fill="none" fill-opacity="0" stroke="#3B72A8" stroke-width="1" stroke-opacity="0.5"/>
  </g>
  <g>
    <rect x="0" y="0" width="454" height="454" fill="none" fill-opacity="0" stroke="#A85B6B" stroke-width="1" stroke-opacity="0.5"/>
  </g>
</svg>
