<svg xmlns="http://www.w3.org/2000/svg" viewBox="0 0 1050 310" width="1050" height="310" role="img" aria-label="person-view layout wireframe">
  <title>person-view — layout wireframe (slots + tokens)</title>
  <rect width="1050" height="310" fill="#ffffff"/>
  <g>
    <rect x="0" y="0" width="1050" height="310" fill="none" fill-opacity="0" stroke="#5B6470" stroke-width="1" stroke-opacity="0.5"/>
  </g>
  <g>
    <rect x="0" y="0" width="1050" height="310" fill="none" fill-opacity="0" stroke="#2E7D6B" stroke-width="1" stroke-opacity="0.5"/>
  </g>
  <g>
    <path d="M73.5,21 H976.5 A31.5,31.5 0 0 1 1008,52.5 V257.5 A31.5,31.5 0 0 1 976.5,289 H73.5 A31.5,31.5 0 0 1 42,257.5 V52.5 A31.5,31.5 0 0 1 73.5,21 Z" fill="#E6E0E9" fill-opacity="1" stroke="#8E6BA8" stroke-width="1.5" stroke-opacity="1"/>
    <text x="45" y="33" font-family="system-ui, sans-serif" font-size="9" fill="#8E6BA8">#FFE6E0E9  pad ·</text>
  </g>
  <g>
    <rect x="42" y="21" width="966" height="268" fill="none" fill-opacity="0" stroke="#B0813B" stroke-width="1" stroke-opacity="0.5"/>
  </g>
  <g>
    <rect x="84" y="63" width="882" height="184" fill="none" fill-opacity="0" stroke="#3B72A8" stroke-width="1" stroke-opacity="0.5"/>
  </g>
  <g>
    <path d="M176,63 H176 A92,92 0 0 1 268,155 V155 A92,92 0 0 1 176,247 H176 A92,92 0 0 1 84,155 V155 A92,92 0 0 1 176,63 Z" fill="#EADDFF" fill-opacity="1" stroke="#A85B6B" stroke-width="1.5" stroke-opacity="1"/>
    <text x="87" y="75" font-family="system-ui, sans-serif" font-size="9" fill="#A85B6B">#FFEADDFF</text>
  </g>
  <g>
    <rect x="129" y="108" width="95" height="95" fill="none" fill-opacity="0" stroke="#4F8A4A" stroke-width="1" stroke-opacity="0.5"/>
  </g>
  <g>
    <rect x="268" y="134" width="42" height="42" fill="none" fill-opacity="0" stroke="#A85B6B" stroke-width="1" stroke-opacity="0.5"/>
  </g>
  <g>
    <rect x="310" y="92" width="265" height="127" fill="none" fill-opacity="0" stroke="#A85B6B" stroke-width="1" stroke-opacity="0.5"/>
  </g>
  <g>
    <rect x="310" y="92" width="265" height="63" fill="none" fill-opacity="0" stroke="#4F8A4A" stroke-width="1" stroke-opacity="0.5"/>
  </g>
  <g>
    <rect x="310" y="166" width="55" height="53" fill="none" fill-opacity="0" stroke="#4F8A4A" stroke-width="1" stroke-opacity="0.5"/>
  </g>
</svg>
