<svg xmlns="http://www.w3.org/2000/svg" viewBox="0 0 621 884" width="621" height="884" role="img" aria-label="sample/PageIndicatorRight5PlusAuditPreview layout wireframe">
  <title>sample/PageIndicatorRight5PlusAuditPreview — layout wireframe (slots + tokens)</title>
  <rect width="621" height="884" fill="#ffffff"/>
  <g>
    <rect x="0" y="0" width="454" height="454" fill="none" fill-opacity="0" stroke="#5B6470" stroke-width="1" stroke-opacity="0.5"/>
  </g>
  <g>
    <rect x="0" y="0" width="454" height="454" fill="none" fill-opacity="0" stroke="#2E7D6B" stroke-width="1" stroke-opacity="0.5"/>
  </g>
  <g>
    <rect x="0" y="0" width="454" height="454" fill="none" fill-opacity="0" stroke="#8E6BA8" stroke-width="1" stroke-opacity="0.5"/>
  </g>
  <g>
    <rect x="0" y="0" width="454" height="454" fill="none" fill-opacity="0" stroke="#B0813B" stroke-width="1" stroke-opacity="0.5"/>
  </g>
  <g>
    <rect x="0" y="0" width="454" height="454" fill="none" fill-opacity="0" stroke="#3B72A8" stroke-width="1" stroke-opacity="0.5"/>
  </g>
  <g>
    <rect x="0" y="0" width="454" height="454" fill="none" fill-opacity="0" stroke="#A85B6B" stroke-width="1" stroke-opacity="0.5"/>
  </g>
  <g>
    <rect x="0" y="0" width="454" height="454" fill="none" fill-opacity="0" stroke="#4F8A4A" stroke-width="1" stroke-opacity="0.5"/>
  </g>
  <g>
    <rect x="0" y="0" width="454" height="454" fill="none" fill-opacity="0" stroke="#7A7A33" stroke-width="1" stroke-opacity="0.5"/>
  </g>
  <g>
    <rect x="0" y="0" width="454" height="454" fill="none" fill-opacity="0" stroke="#5B6470" stroke-width="1" stroke-opacity="0.5"/>
  </g>
  <g>
    <rect x="0" y="0" width="454" height="454" fill="none" fill-opacity="0" stroke="#2E7D6B" stroke-width="1" stroke-opacity="0.5"/>
  </g>
  <g>
    <rect x="23" y="194" width="408" height="66" fill="none" fill-opacity="0" stroke="#8E6BA8" stroke-width="1" stroke-opacity="0.5"/>
  </g>
  <g>
    <rect x="167" y="430" width="454" height="454" fill="none" fill-opacity="0" stroke="#A85B6B" stroke-width="1" stroke-opacity="0.5"/>
  </g>
  <g>
    <rect x="12" y="12" width="430" height="430" fill="none" fill-opacity="0" stroke="#4F8A4A" stroke-width="1" stroke-opacity="0.5"/>
  </g>
  <g>
    <rect x="12" y="12" width="430" height="430" fill="none" fill-opacity="0" stroke="#7A7A33" stroke-width="1" stroke-opacity="0.5"/>
  </g>
  <g>
    <rect x="145" y="414" width="22" height="18" fill="none" fill-opacity="0" stroke="#5B6470" stroke-width="1" stroke-opacity="0.5"/>
  </g>
  <g>
    <rect x="145" y="414" width="22" height="18" fill="none" fill-opacity="0" stroke="#2E7D6B" stroke-width="1" stroke-opacity="0.5"/>
  </g>
  <g>
    <rect x="165" y="421" width="22" height="16" fill="none" fill-opacity="0" stroke="#5B6470" stroke-width="1" stroke-opacity="0.5"/>
  </g>
  <g>
    <rect x="169" y="422" width="14" height="14" fill="none" fill-opacity="0" stroke="#2E7D6B" stroke-width="1" stroke-opacity="0.5"/>
  </g>
  <g>
    <path d="M176,425 H176 A4,4 0 0 1 180,429 V429 A4,4 0 0 1 176,433 H176 A4,4 0 0 1 172,429 V429 A4,4 0 0 1 176,425 Z" fill="#FFFFFF" fill-opacity="0.302" stroke="#8E6BA8" stroke-width="1.5" stroke-opacity="1"/>
  </g>
  <g>
    <rect x="185" y="426" width="22" height="14" fill="none" fill-opacity="0" stroke="#5B6470" stroke-width="1" stroke-opacity="0.5"/>
  </g>
  <g>
    <rect x="189" y="426" width="14" height="14" fill="none" fill-opacity="0" stroke="#2E7D6B" stroke-width="1" stroke-opacity="0.5"/>
  </g>
  <g>
    <path d="M195,426 H197 A6,6 0 0 1 203,432 V434 A6,6 0 0 1 197,440 H195 A6,6 0 0 1 189,434 V432 A6,6 0 0 1 195,426 Z" fill="#FFFFFF" fill-opacity="0.302" stroke="#8E6BA8" stroke-width="1.5" stroke-opacity="1"/>
  </g>
  <g>
    <rect x="207" y="430" width="20" height="12" fill="none" fill-opacity="0" stroke="#5B6470" stroke-width="1" stroke-opacity="0.5"/>
  </g>
  <g>
    <rect x="211" y="430" width="12" height="12" fill="none" fill-opacity="0" stroke="#2E7D6B" stroke-width="1" stroke-opacity="0.5"/>
  </g>
  <g>
    <path d="M217,430 H217 A6,6 0 0 1 223,436 V436 A6,6 0 0 1 217,442 H217 A6,6 0 0 1 211,436 V436 A6,6 0 0 1 217,430 Z" fill="#FFFFFF" fill-opacity="0.302" stroke="#8E6BA8" stroke-width="1.5" stroke-opacity="1"/>
  </g>
  <g>
    <rect x="227" y="430" width="20" height="12" fill="none" fill-opacity="0" stroke="#5B6470" stroke-width="1" stroke-opacity="0.5"/>
  </g>
  <g>
    <rect x="231" y="430" width="12" height="12" fill="none" fill-opacity="0" stroke="#2E7D6B" stroke-width="1" stroke-opacity="0.5"/>
  </g>
  <g>
    <path d="M237,430 H237 A6,6 0 0 1 243,436 V436 A6,6 0 0 1 237,442 H237 A6,6 0 0 1 231,436 V436 A6,6 0 0 1 237,430 Z" fill="#FFFFFF" fill-opacity="0.302" stroke="#8E6BA8" stroke-width="1.5" stroke-opacity="1"/>
  </g>
  <g>
    <rect x="247" y="426" width="22" height="14" fill="none" fill-opacity="0" stroke="#5B6470" stroke-width="1" stroke-opacity="0.5"/>
  </g>
  <g>
    <rect x="251" y="426" width="14" height="14" fill="none" fill-opacity="0" stroke="#2E7D6B" stroke-width="1" stroke-opacity="0.5"/>
  </g>
  <g>
    <path d="M257,426 H259 A6,6 0 0 1 265,432 V434 A6,6 0 0 1 259,440 H257 A6,6 0 0 1 251,434 V432 A6,6 0 0 1 257,426 Z" fill="#FFFFFF" fill-opacity="0.302" stroke="#8E6BA8" stroke-width="1.5" stroke-opacity="1"/>
  </g>
  <g>
    <rect x="267" y="421" width="22" height="16" fill="none" fill-opacity="0" stroke="#5B6470" stroke-width="1" stroke-opacity="0.5"/>
  </g>
  <g>
    <rect x="271" y="422" width="14" height="14" fill="none" fill-opacity="0" stroke="#2E7D6B" stroke-width="1" stroke-opacity="0.5"/>
  </g>
  <g>
    <path d="M277,422 H279 A6,6 0 0 1 285,428 V430 A6,6 0 0 1 279,436 H277 A6,6 0 0 1 271,430 V428 A6,6 0 0 1 277,422 Z" fill="#FFFFFF" fill-opacity="1" stroke="#8E6BA8" stroke-width="1.5" stroke-opacity="1"/>
  </g>
  <g>
    <rect x="287" y="414" width="22" height="18" fill="none" fill-opacity="0" stroke="#5B6470" stroke-width="1" stroke-opacity="0.5"/>
  </g>
  <g>
    <rect x="290" y="415" width="16" height="16" fill="none" fill-opacity="0" stroke="#2E7D6B" stroke-width="1" stroke-opacity="0.5"/>
  </g>
  <g>
    <rect x="305" y="414" width="4" height="12" fill="none" fill-opacity="0" stroke="#5B6470" stroke-width="1" stroke-opacity="0.5"/>
  </g>
  <g>
    <rect x="0" y="0" width="454" height="454" fill="none" fill-opacity="0" stroke="#B0813B" stroke-width="1" stroke-opacity="0.5"/>
  </g>
  <g>
    <rect x="0" y="0" width="454" height="454" fill="none" fill-opacity="0" stroke="#3B72A8" stroke-width="1" stroke-opacity="0.5"/>
  </g>
  <g>
    <rect x="191" y="7" width="72" height="36" fill="none" fill-opacity="0" stroke="#A85B6B" stroke-width="1" stroke-opacity="0.5"/>
  </g>
</svg>
