<svg xmlns="http://www.w3.org/2000/svg" viewBox="0 0 256 136" width="256" height="136" role="img" aria-label="SeekToPreviousButton layout wireframe">
  <title>SeekToPreviousButton — layout wireframe (slots + tokens)</title>
  <rect width="256" height="136" fill="#ffffff"/>
  <g>
    <rect x="0" y="0" width="256" height="136" fill="none" fill-opacity="0" stroke="#5B6470" stroke-width="1" stroke-opacity="0.5"/>
  </g>
  <g>
    <rect x="0" y="0" width="256" height="136" fill="none" fill-opacity="0" stroke="#2E7D6B" stroke-width="1" stroke-opacity="0.5"/>
  </g>
  <g>
    <rect x="16" y="16" width="224" height="104" fill="none" fill-opacity="0" stroke="#8E6BA8" stroke-width="1" stroke-opacity="0.5"/>
  </g>
  <g>
    <path d="M68,16 H68 A52,52 0 0 1 120,68 V68 A52,52 0 0 1 68,120 H68 A52,52 0 0 1 16,68 V68 A52,52 0 0 1 68,16 Z" fill="none" fill-opacity="0" stroke="#B0813B" stroke-width="1.5" stroke-opacity="1"/>
  </g>
  <g>
    <rect x="36" y="36" width="64" height="64" fill="none" fill-opacity="0" stroke="#3B72A8" stroke-width="1" stroke-opacity="0.5"/>
  </g>
  <g>
    <path d="M188,16 H188 A52,52 0 0 1 240,68 V68 A52,52 0 0 1 188,120 H188 A52,52 0 0 1 136,68 V68 A52,52 0 0 1 188,16 Z" fill="none" fill-opacity="0" stroke="#B0813B" stroke-width="1.5" stroke-opacity="1"/>
  </g>
  <g>
    <rect x="156" y="36" width="64" height="64" fill="none" fill-opacity="0" stroke="#3B72A8" stroke-width="1" stroke-opacity="0.5"/>
  </g>
</svg>
