<svg xmlns="http://www.w3.org/2000/svg" viewBox="0 0 1050 211" width="1050" height="211" role="img" aria-label="slider layout wireframe">
  <title>slider — layout wireframe (slots + tokens)</title>
  <rect width="1050" height="211" fill="#ffffff"/>
  <g>
    <rect x="0" y="0" width="1050" height="211" fill="none" fill-opacity="0" stroke="#5B6470" stroke-width="1" stroke-opacity="0.5"/>
  </g>
  <g>
    <rect x="0" y="0" width="1050" height="211" fill="none" fill-opacity="0" stroke="#2E7D6B" stroke-width="1" stroke-opacity="0.5"/>
  </g>
  <g>
    <rect x="0" y="32" width="1008" height="147" fill="#FFFFFF" fill-opacity="1" stroke="#8E6BA8" stroke-width="1.5" stroke-opacity="1"/>
    <text x="3" y="44" font-family="system-ui, sans-serif" font-size="9" fill="#8E6BA8">#FFFFFFFF  pad ·</text>
  </g>
  <g>
    <rect x="0" y="32" width="183" height="147" fill="none" fill-opacity="0" stroke="#B0813B" stroke-width="1" stroke-opacity="0.5"/>
  </g>
  <g>
    <rect x="0" y="32" width="183" height="147" fill="none" fill-opacity="0" stroke="#3B72A8" stroke-width="1" stroke-opacity="0.5"/>
  </g>
  <g>
    <rect x="0" y="32" width="183" height="147" fill="none" fill-opacity="0" stroke="#A85B6B" stroke-width="1" stroke-opacity="0.5"/>
  </g>
  <g>
    <rect x="0" y="32" width="183" height="147" fill="none" fill-opacity="0" stroke="#4F8A4A" stroke-width="1" stroke-opacity="0.5"/>
  </g>
  <g>
    <rect x="0" y="32" width="183" height="147" fill="none" fill-opacity="0" stroke="#7A7A33" stroke-width="1" stroke-opacity="0.5"/>
  </g>
  <g>
    <rect x="42" y="53" width="99" height="42" fill="none" fill-opacity="0" stroke="#4F8A4A" stroke-width="1" stroke-opacity="0.5"/>
  </g>
  <g>
    <rect x="42" y="53" width="99" height="42" fill="none" fill-opacity="0" stroke="#7A7A33" stroke-width="1" stroke-opacity="0.5"/>
  </g>
  <g>
    <rect x="42" y="100" width="99" height="53" fill="none" fill-opacity="0" stroke="#4F8A4A" stroke-width="1" stroke-opacity="0.5"/>
  </g>
  <g>
    <rect x="42" y="100" width="99" height="53" fill="none" fill-opacity="0" stroke="#7A7A33" stroke-width="1" stroke-opacity="0.5"/>
  </g>
  <g>
    <rect x="42" y="100" width="99" height="53" fill="none" fill-opacity="0" stroke="#5B6470" stroke-width="1" stroke-opacity="0.5"/>
  </g>
  <g>
    <rect x="183" y="80" width="825" height="53" fill="none" fill-opacity="0" stroke="#B0813B" stroke-width="1" stroke-opacity="0.5"/>
  </g>
  <g>
    <rect x="209" y="101" width="772" height="11" fill="none" fill-opacity="0" stroke="#3B72A8" stroke-width="1" stroke-opacity="0.5"/>
  </g>
  <g>
    <rect x="209" y="101" width="772" height="11" fill="none" fill-opacity="0" stroke="#A85B6B" stroke-width="1" stroke-opacity="0.5"/>
  </g>
  <g>
    <rect x="645" y="80" width="53" height="53" fill="none" fill-opacity="0" stroke="#3B72A8" stroke-width="1" stroke-opacity="0.5"/>
  </g>
  <g>
    <path d="M671.5,80 H671.5 A26.5,26.5 0 0 1 698,106.5 V106.5 A26.5,26.5 0 0 1 671.5,133 H671.5 A26.5,26.5 0 0 1 645,106.5 V106.5 A26.5,26.5 0 0 1 671.5,80 Z" fill="#175DDC" fill-opacity="1" stroke="#A85B6B" stroke-width="1.5" stroke-opacity="1"/>
    <text x="648" y="92" font-family="system-ui, sans-serif" font-size="9" fill="#A85B6B">#FF175DDC</text>
  </g>
</svg>
