<svg xmlns="http://www.w3.org/2000/svg" viewBox="0 0 1050 316" width="1050" height="316" role="img" aria-label="top-app-bar-overflow-cutoff layout wireframe">
  <title>top-app-bar-overflow-cutoff — layout wireframe (slots + tokens)</title>
  <rect width="1050" height="316" fill="#ffffff"/>
  <g>
    <rect x="0" y="0" width="1050" height="316" fill="none" fill-opacity="0" stroke="#5B6470" stroke-width="1" stroke-opacity="0.5"/>
  </g>
  <g>
    <rect x="0" y="0" width="1050" height="316" fill="none" fill-opacity="0" stroke="#2E7D6B" stroke-width="1" stroke-opacity="0.5"/>
  </g>
  <g>
    <rect x="0" y="0" width="1050" height="316" fill="none" fill-opacity="0" stroke="#8E6BA8" stroke-width="1" stroke-opacity="0.5"/>
  </g>
  <g>
    <rect x="0" y="0" width="1050" height="316" fill="none" fill-opacity="0" stroke="#B0813B" stroke-width="1" stroke-opacity="0.5"/>
  </g>
  <g>
    <rect x="0" y="0" width="1050" height="316" fill="none" fill-opacity="0" stroke="#3B72A8" stroke-width="1" stroke-opacity="0.5"/>
  </g>
  <g>
    <rect x="0" y="0" width="1050" height="148" fill="none" fill-opacity="0" stroke="#A85B6B" stroke-width="1" stroke-opacity="0.5"/>
  </g>
  <g>
    <rect x="11" y="11" width="126" height="126" fill="none" fill-opacity="0" stroke="#4F8A4A" stroke-width="1" stroke-opacity="0.5"/>
  </g>
  <g>
    <path d="M74.5,22 H74.5 A52.5,52.5 0 0 1 127,74.5 V74.5 A52.5,52.5 0 0 1 74.5,127 H74.5 A52.5,52.5 0 0 1 22,74.5 V74.5 A52.5,52.5 0 0 1 74.5,22 Z" fill="none" fill-opacity="0" stroke="#7A7A33" stroke-width="1.5" stroke-opacity="1"/>
  </g>
  <g>
    <rect x="43" y="43" width="63" height="63" fill="none" fill-opacity="0" stroke="#5B6470" stroke-width="1" stroke-opacity="0.5"/>
  </g>
  <g>
    <rect x="148" y="0" width="880" height="148" fill="none" fill-opacity="0" stroke="#4F8A4A" stroke-width="1" stroke-opacity="0.5"/>
  </g>
  <g>
    <rect x="148" y="0" width="880" height="148" fill="none" fill-opacity="0" stroke="#7A7A33" stroke-width="1" stroke-opacity="0.5"/>
  </g>
  <g>
    <rect x="0" y="148" width="1050" height="168" fill="none" fill-opacity="0" stroke="#A85B6B" stroke-width="1" stroke-opacity="0.5"/>
  </g>
  <g>
    <rect x="43" y="148" width="1006" height="148" fill="none" fill-opacity="0" stroke="#4F8A4A" stroke-width="1" stroke-opacity="0.5"/>
  </g>
  <g>
    <rect x="43" y="148" width="1006" height="148" fill="none" fill-opacity="0" stroke="#7A7A33" stroke-width="1" stroke-opacity="0.5"/>
  </g>
</svg>
